<svg xmlns="http://www.w3.org/2000/svg" viewBox="0 0 400 400" width="400" height="400" role="img" aria-labelledby="t d" font-family="'Playfair Display', Georgia, 'Times New Roman', serif">
  <title id="t">Law Chambers of DKP</title>
  <desc id="d">Rubber-stamp style circular emblem with scales of justice and DKP monogram</desc>

  <!-- Ink-distress filter: rough edges + speckled erosion for a rubber-stamp feel.
       Remove filter="url(#stamp)" on the group below for a perfectly crisp version. -->
  <defs>
    <filter id="stamp" x="-6%" y="-6%" width="112%" height="112%">
      <feTurbulence type="fractalNoise" baseFrequency="0.015" numOctaves="2" seed="7" result="warp"/>
      <feDisplacementMap in="SourceGraphic" in2="warp" scale="2.4" xChannelSelector="R" yChannelSelector="G" result="disp"/>
      <feTurbulence type="fractalNoise" baseFrequency="0.7" numOctaves="2" seed="3" result="grain"/>
      <feColorMatrix in="grain" type="matrix"
        values="0 0 0 0 0  0 0 0 0 0  0 0 0 0 0  -1.9 0 0 0 1.5" result="grainAlpha"/>
      <feComposite in="disp" in2="grainAlpha" operator="in"/>
    </filter>

    <!-- arcs for curved text -->
    <path id="arcTop" d="M 52 200 A 148 148 0 0 1 348 200" fill="none"/>
    <path id="arcBottom" d="M 50 200 A 150 150 0 0 0 350 200" fill="none"/>
  </defs>

  <g fill="#000000" stroke="#000000" filter="url(#stamp)">

    <!-- Rings -->
    <circle cx="200" cy="200" r="194" fill="none" stroke-width="2.5"/>
    <circle cx="200" cy="200" r="184" fill="none" stroke-width="7"/>
    <circle cx="200" cy="200" r="120" fill="none" stroke-width="2.5"/>

    <!-- Curved text -->
    <text font-size="27" font-weight="600" letter-spacing="5.5" text-anchor="middle" stroke="none">
      <textPath href="#arcTop" startOffset="50%">LAW CHAMBERS OF DKP</textPath>
    </text>
    <text font-size="20" font-weight="600" letter-spacing="5" text-anchor="middle" stroke="none">
      <textPath href="#arcBottom" startOffset="50%">ADVOCATES &#8226; CHENNAI</textPath>
    </text>

    <!-- Side separator dots (where the two text bands meet) -->
    <circle cx="50" cy="200" r="4" stroke="none"/>
    <circle cx="350" cy="200" r="4" stroke="none"/>

    <!-- Scales of justice -->
    <g fill="none" stroke-width="2.6" stroke-linecap="round">
      <circle cx="200" cy="143" r="3.2" fill="#000000" stroke="none"/>
      <line x1="200" y1="146" x2="200" y2="178"/>
      <line x1="176" y1="150" x2="224" y2="150"/>
      <line x1="187" y1="180" x2="213" y2="180"/>
      <!-- left pan -->
      <line x1="176" y1="150" x2="165" y2="163"/>
      <line x1="176" y1="150" x2="187" y2="163"/>
      <path d="M 164 163 Q 176 178 188 163"/>
      <!-- right pan -->
      <line x1="224" y1="150" x2="213" y2="163"/>
      <line x1="224" y1="150" x2="235" y2="163"/>
      <path d="M 212 163 Q 224 178 236 163"/>
    </g>

    <!-- Monogram -->
    <text x="200" y="232" font-size="58" font-weight="700" letter-spacing="6"
          text-anchor="middle" stroke="none">DKP</text>

    <!-- Sparkle divider -->
    <text x="200" y="252" font-size="13" text-anchor="middle" stroke="none" letter-spacing="6">&#10022; &#10022; &#10022;</text>

    <!-- Established -->
    <text x="200" y="272" font-size="12.5" font-weight="600" letter-spacing="4"
          text-anchor="middle" stroke="none" font-family="'Lato', Arial, sans-serif">EST. 1983</text>

  </g>
</svg>
